<svg version="1" xmlns="http://www.w3.org/2000/svg" width="304" height="304" viewBox="0 0 228.000000 228.000000"><path d="M118.9 38.3C112.6 43.6 98 58.8 98 60.2c0 .4 1.5 1.5 3.3 2.4 12.1 6.1 16.5 20.3 11.7 37.6-1.1 4-2 8.2-2 9.3 0 2 4.4 5.5 6.9 5.5.7 0 1.1-4.3 1.1-13.1 0-12.9.1-13.2 3.3-19.2 2.8-5.3 3.1-6.9 2.8-11.7-1-12.5-.5-26.5 1.2-31.9 2-6.5 2-6.1.4-6.1-.7 0-4.2 2.4-7.8 5.3z"/><path d="M85.6 65.3c-1.8 1.3-1.6 1.7 2.8 6.3 2.6 2.7 5.9 6.8 7.4 9.1C98 84.3 99 85 101.6 85c6.2 0 8.1 5 5.8 15-1.6 7-1.1 9.7 1.3 8.2 1.9-1.2 4.3-12.1 4.3-19.7-.1-10.5-5.3-20-12.7-23.1-4.1-1.8-12.4-1.8-14.7-.1zM123.7 84.4c-3.4 6.8-2.9 8.5 5 15.5 6.8 5.8 10.4 12.2 11.1 19.3.4 3.9.8 4.8 2.4 4.8 1.8 0 1.9-.5 1.3-5.3-1-8.2-3.4-14.5-8.6-22.4-2.6-4-5-9.1-5.4-11.2-1.1-6.6-2.7-6.8-5.8-.7zM86.1 101.8c-5.8 7.4-6.8 11.3-4.6 18.9 2.1 7.1 4.5 11.2 10.6 18 2.5 2.8 4.9 6.6 5.3 8.4.8 4.3.7 14.5-.3 19.6-1 4.9.4 7.7 3.5 7.1 1.8-.3 1.9-1.4 1.8-25.8-.1-14 0-22.4.3-18.7.4 6.3.6 7 3.3 8.5 1.6.9 3.3 2.4 3.7 3.2.4.8.8 7.8.9 15.5.1 11.2.4 14 1.5 14 2.1 0 2.3-11.4.8-33.9-1.4-20.9-.9-19.7-9.8-25.8-3-2.2-4.5-2.7-5.1-1.9-.4.7-1.7-1.6-3.2-5.5-1.3-3.7-2.8-6.9-3.4-7-.5-.1-2.9 2.3-5.3 5.4z"/><path d="M121.6 103.6c-.3 2.6-.6 6.7-.6 9.1 0 4.4.1 4.4 5.3 6.8 8.3 3.8 9.2 3.7 9-.8-.4-5.8-8.9-19.7-12-19.7-.6 0-1.3 2.1-1.7 4.6zM114.5 125.7c1.2 11.7 2.1 37.6 1.4 41.8-.5 2.5-1.7 4.8-3.5 6.3-2.6 2.3-3.4 2.4-12.3 2-7.2-.4-11.8-1.3-18.4-3.6-7.3-2.5-8.9-2.8-9.4-1.6-.8 2.2 2.5 8.8 6.1 12.2 6.9 6.8 22.9 11.9 33.4 10.9 11.1-1.1 13-5.3 11.2-24.1-1.2-12.3-1.1-28.8.2-30.2 1.1-1 7.5 3.6 9 6.5 2.7 5.1 1.2 26.7-2.8 40.8-.5 1.9-.2 2.3 1.5 2.3 3.1 0 4.6-4.4 6.1-17.2 1.5-12.2 1-22.2-1.5-35.4l-1.8-9.1-9.1-4.1c-5-2.3-9.5-4.2-10-4.2s-.6 2.9-.1 6.7z"/><path d="M74.4 124.3c-3.6 5.4-4.4 7.4-4.4 11.2 0 5.4 1.4 7.2 8.8 10.9 10.5 5.3 11.8 7.7 9.9 18.4-.6 3.4-.5 4.3.5 4 1.9-.6 3.6-8.3 3.7-16.3.1-6.4-.2-7.6-3.3-12.5-1.9-3-5.2-8.5-7.3-12.2-2.1-3.8-4.2-6.8-4.8-6.8-.5 0-2 1.5-3.1 3.3zM138 128c-.9.6-.8 2 .5 6.6 2.8 9.7 2.9 9.8 7.8 11.1 6 1.6 8 4.6 7.8 11.6 0 2.8-.5 6.8-1.1 8.7-1.2 4.3-1.2 5 0 5 1.3 0 4.9-12.5 5.6-19.6.8-7.7-.8-13.2-4.9-17.2-3.5-3.4-13.7-7.5-15.7-6.2z"/><path d="M68.5 149.1c-.4.6-.4 3.5 0 6.4 1.2 9.8 8.3 16.4 9.1 8.5.2-1.9.9-4.8 1.4-6.4.6-1.6 1-3 1-3.1 0-.2-1.3-.8-2.9-1.5-1.6-.6-3.7-2-4.7-3.1-1.9-2.2-3-2.4-3.9-.8zM142 166c0 7.7.4 14 .8 14 2.5 0 3.2-3 3.2-13.6 0-12.1-.4-14.4-2.6-14.4-1.1 0-1.4 2.7-1.4 14z"/></svg>